<svg width="1709" height="1709" xmlns="http://www.w3.org/2000/svg" xmlns:xlink="http://www.w3.org/1999/xlink" xml:space="preserve" overflow="hidden"><defs><filter id="fx0" x="-10%" y="-10%" width="120%" height="120%" filterUnits="userSpaceOnUse" primitiveUnits="userSpaceOnUse"><feComponentTransfer color-interpolation-filters="sRGB"><feFuncR type="discrete" tableValues="0.737255 0.737255"/><feFuncG type="discrete" tableValues="0.831373 0.831373"/><feFuncB type="discrete" tableValues="0.909804 0.909804"/><feFuncA type="linear" slope="1.000000" intercept="0.000000"/></feComponentTransfer><feGaussianBlur stdDeviation="0.000000 0.000000"/></filter><clipPath id="clip1"><rect x="133.375" y="132.747" width="1430.89" height="1418.38"/></clipPath></defs><g transform="translate(-1407 -481)"><g><path d="M1582 932C1582 872.353 1630.35 824 1690 824L2857 824C2916.65 824 2965 872.353 2965 932 2965 991.647 2916.65 1040 2857 1040L1690 1040C1630.35 1040 1582 991.647 1582 932Z" fill="#FFFF00" fill-rule="evenodd" fill-opacity="1"/><path d="M1494 1236C1494 1176.35 1542.35 1128 1602 1128L2070 1128C2129.65 1128 2178 1176.35 2178 1236 2178 1295.65 2129.65 1344 2070 1344L1602 1344C1542.35 1344 1494 1295.65 1494 1236Z" fill="#FFC000" fill-rule="evenodd" fill-opacity="1"/><path d="M2001 1538C2001 1478.35 2049.35 1430 2109 1430L2711 1430C2770.65 1430 2819 1478.35 2819 1538L2819 1538C2819 1597.65 2770.65 1646 2711 1646L2109 1646C2049.35 1646 2001 1597.65 2001 1538Z" fill="#A6CAEC" fill-rule="evenodd" fill-opacity="1"/><path d="M2222 1236C2222 1176.35 2270.35 1128 2330 1128L2798 1128C2857.65 1128 2906 1176.35 2906 1236 2906 1295.65 2857.65 1344 2798 1344L2330 1344C2270.35 1344 2222 1295.65 2222 1236Z" fill="#FF0000" fill-rule="evenodd" fill-opacity="1"/><path d="M1447 1534.5C1447 1474.58 1495.58 1426 1555.5 1426L1844.5 1426C1904.42 1426 1953 1474.58 1953 1534.5 1953 1594.42 1904.42 1643 1844.5 1643L1555.5 1643C1495.58 1643 1447 1594.42 1447 1534.5Z" fill="#92D050" fill-rule="evenodd" fill-opacity="1"/><g clip-path="url(#clip1)" filter="url(#fx0)" transform="translate(1410 507)"><g><g><g><g><g><path d="M1496.67 1322.9 1278.05 1104.28C1248.32 1074.55 1208.09 1064.05 1169.62 1071.05L1092.66 994.095C1160.87 906.647 1201.1 794.713 1201.1 675.784 1201.1 387.206 964.99 151.097 676.412 151.097 387.834 151.097 151.724 387.206 151.724 675.784 151.724 964.362 387.834 1200.47 676.412 1200.47 795.341 1200.47 905.525 1160.25 994.722 1092.04L1071.68 1168.99C1064.68 1207.47 1075.17 1247.69 1104.91 1277.43L1323.53 1496.05C1348.01 1520.53 1379.49 1532.77 1410.97 1532.77 1442.46 1532.77 1473.94 1520.53 1498.42 1496.05 1543.89 1447.07 1543.89 1370.12 1496.67 1322.9ZM674.663 1093.79C443.8 1093.79 254.913 904.898 254.913 674.035 254.913 443.173 443.8 254.285 674.663 254.285 905.525 254.285 1094.41 443.173 1094.41 674.035 1094.41 904.898 905.525 1093.79 674.663 1093.79Z" stroke="#2A3647" stroke-width="36.6994" stroke-linecap="butt" stroke-linejoin="miter" stroke-miterlimit="4" stroke-opacity="1" fill="#FFFFFF" fill-rule="nonzero" fill-opacity="1"/></g></g></g></g></g></g><g><g><g><path d="M2929.36 1807.21 2710.74 1588.59C2681.01 1558.86 2640.78 1548.37 2602.3 1555.36L2525.35 1478.41C2593.56 1390.96 2633.79 1279.03 2633.79 1160.1 2633.79 871.52 2397.68 635.41 2109.1 635.41 1820.52 635.41 1584.41 871.52 1584.41 1160.1 1584.41 1448.68 1820.52 1684.79 2109.1 1684.79 2228.03 1684.79 2338.21 1644.56 2427.41 1576.35L2504.36 1653.3C2497.37 1691.78 2507.86 1732.01 2537.59 1761.74L2756.21 1980.36C2780.7 2004.84 2812.18 2017.09 2843.66 2017.09 2875.14 2017.09 2906.62 2004.84 2931.11 1980.36 2976.58 1931.39 2976.58 1854.43 2929.36 1807.21ZM2107.35 1578.1C1876.49 1578.1 1687.6 1389.21 1687.6 1158.35 1687.6 927.486 1876.49 738.599 2107.35 738.599 2338.21 738.599 2527.1 927.486 2527.1 1158.35 2527.1 1389.21 2338.21 1578.1 2107.35 1578.1Z" stroke="#2A3647" stroke-width="36.6994" stroke-linecap="butt" stroke-linejoin="miter" stroke-miterlimit="4" stroke-opacity="1" fill="#FFFFFF" fill-rule="nonzero" fill-opacity="1"/></g></g></g></g></g></svg>