<svg width="605" height="421" xmlns="http://www.w3.org/2000/svg" xmlns:xlink="http://www.w3.org/1999/xlink" xml:space="preserve" overflow="hidden"><g transform="translate(-2167 -1054)"><g><path d="M2427 1118.5C2427 1100.55 2441.55 1086 2459.5 1086 2477.45 1086 2492 1100.55 2492 1118.5 2492 1136.45 2477.45 1151 2459.5 1151 2441.55 1151 2427 1136.45 2427 1118.5Z" stroke="#000000" stroke-width="27.5" stroke-linecap="butt" stroke-linejoin="miter" stroke-miterlimit="8" stroke-opacity="1" fill="#000000" fill-rule="evenodd" fill-opacity="1"/><path d="M2691 1183.5C2691 1165.55 2705.55 1151 2723.5 1151 2741.45 1151 2756 1165.55 2756 1183.5 2756 1201.45 2741.45 1216 2723.5 1216 2705.55 1216 2691 1201.45 2691 1183.5Z" stroke="#000000" stroke-width="27.5" stroke-linecap="butt" stroke-linejoin="miter" stroke-miterlimit="8" stroke-opacity="1" fill="#000000" fill-rule="evenodd" fill-opacity="1"/><path d="M2414 1427.5C2414 1409.55 2428.55 1395 2446.5 1395 2464.45 1395 2479 1409.55 2479 1427.5 2479 1445.45 2464.45 1460 2446.5 1460 2428.55 1460 2414 1445.45 2414 1427.5Z" stroke="#000000" stroke-width="27.5" stroke-linecap="butt" stroke-linejoin="miter" stroke-miterlimit="8" stroke-opacity="1" fill="#000000" fill-rule="evenodd" fill-opacity="1"/><path d="M2671 1388.5C2671 1370.55 2685.55 1356 2703.5 1356 2721.45 1356 2736 1370.55 2736 1388.5 2736 1406.45 2721.45 1421 2703.5 1421 2685.55 1421 2671 1406.45 2671 1388.5Z" stroke="#000000" stroke-width="27.5" stroke-linecap="butt" stroke-linejoin="miter" stroke-miterlimit="8" stroke-opacity="1" fill="#000000" fill-rule="evenodd" fill-opacity="1"/><g><g><g><path d="M2461.91 1317.88 2418.94 1274.91C2413.09 1269.06 2405.19 1267 2397.62 1268.38L2382.5 1253.25C2395.91 1236.06 2403.81 1214.06 2403.81 1190.69 2403.81 1133.97 2357.41 1087.56 2300.69 1087.56 2243.97 1087.56 2197.56 1133.97 2197.56 1190.69 2197.56 1247.41 2243.97 1293.81 2300.69 1293.81 2324.06 1293.81 2345.72 1285.91 2363.25 1272.5L2378.38 1287.63C2377 1295.19 2379.06 1303.09 2384.91 1308.94L2427.88 1351.91C2432.69 1356.72 2438.88 1359.13 2445.06 1359.13 2451.25 1359.13 2457.44 1356.72 2462.25 1351.91 2471.19 1342.28 2471.19 1327.16 2461.91 1317.88ZM2300.34 1272.84C2254.97 1272.84 2217.84 1235.72 2217.84 1190.34 2217.84 1144.97 2254.97 1107.84 2300.34 1107.84 2345.72 1107.84 2382.84 1144.97 2382.84 1190.34 2382.84 1235.72 2345.72 1272.84 2300.34 1272.84Z" stroke="#000000" stroke-width="9.16667" stroke-linecap="butt" stroke-linejoin="miter" stroke-miterlimit="4" stroke-opacity="1" fill="#000000" fill-rule="nonzero" fill-opacity="1"/></g></g></g><path d="M2513 1139 2670.9 1170.61" stroke="#000000" stroke-width="27.5" stroke-linecap="butt" stroke-linejoin="miter" stroke-miterlimit="8" stroke-opacity="1" fill="none" fill-rule="evenodd"/><path d="M0 0 179.014 167.401" stroke="#000000" stroke-width="27.5" stroke-linecap="butt" stroke-linejoin="miter" stroke-miterlimit="8" stroke-opacity="1" fill="none" fill-rule="evenodd" transform="matrix(1 0 0 -1 2492 1393.4)"/><path d="M0 0 19.7437 95.8783" stroke="#000000" stroke-width="27.5" stroke-linecap="butt" stroke-linejoin="miter" stroke-miterlimit="8" stroke-opacity="1" fill="none" fill-rule="evenodd" transform="matrix(-1 0 0 1 2724.74 1238)"/><path d="M0 0 135.01 21.0967" stroke="#000000" stroke-width="27.5" stroke-linecap="butt" stroke-linejoin="miter" stroke-miterlimit="8" stroke-opacity="1" fill="none" fill-rule="evenodd" transform="matrix(1 0 0 -1 2507 1427.1)"/></g></g></svg>